<svg width="25" height="25" viewBox="0 0 25 25" fill="none" xmlns="http://www.w3.org/2000/svg">
<path fill-rule="evenodd" clip-rule="evenodd" d="M10.3235 10.533L10.321 3.088L8.212 5.1985L3.0125 0L0 3.0125L5.1995 8.211L2.877 10.535L10.3235 10.533ZM10.3235 14.4675L2.877 14.4655L5.1995 16.789L0 21.9875L3.0125 25L8.212 19.8015L10.321 21.912L10.3235 14.4675ZM14.6765 14.4675L14.679 21.912L16.788 19.8015L21.9875 25L25 21.9875L19.8005 16.789L22.1225 14.4655L14.6765 14.4675ZM14.679 3.088L14.6765 10.5325L22.1225 10.5345L19.8005 8.211L25 3.0125L21.9875 0L16.788 5.199L14.679 3.088Z" fill="white"/>
</svg>
