<svg width="29" height="25" viewBox="0 0 29 25" fill="none" xmlns="http://www.w3.org/2000/svg">
<path d="M8.51018 10.8429L3.97893 6.03501L5.68774 4.22183L10.219 9.02973L11.6561 7.50487C11.7694 7.38465 11.9231 7.31711 12.0833 7.31711C12.417 7.31711 12.6875 7.60412 12.6875 7.95817V12.8211C12.6875 13.1751 12.417 13.4621 12.0833 13.4621H7.50024C7.34 13.4621 7.18634 13.3946 7.07304 13.2743C6.83709 13.024 6.83709 12.6181 7.07304 12.3678L8.51018 10.8429ZM12.0833 16.6674V19.2316H2.41667C1.08198 19.2316 0 18.0835 0 16.6674V2.56421C0 1.14804 1.08198 0 2.41667 0H22.9583C24.293 0 25.375 1.14804 25.375 2.56421V11.5389H22.9583V2.56421H2.41667V16.6674H12.0833ZM15.7083 14.1032H27.7917C28.459 14.1032 29 14.6772 29 15.3853V23.0779C29 23.786 28.459 24.36 27.7917 24.36H15.7083C15.041 24.36 14.5 23.786 14.5 23.0779V15.3853C14.5 14.6772 15.041 14.1032 15.7083 14.1032Z" fill="white"/>
</svg>
