<svg width="41" height="51" viewBox="0 0 41 51" fill="none" xmlns="http://www.w3.org/2000/svg">
                            <path d="M40.7646 44.2989C39.8782 41.4216 38.3361 38.7814 36.181 36.4522C35.7274 35.9619 35.1629 35.3518 34.4858 34.8356C34.0448 34.4996 33.4262 34.5281 33.0182 34.9035C29.358 38.2714 25.2628 39.9088 20.4979 39.9088H20.4853C15.7103 39.9059 11.6117 38.264 7.95648 34.889C7.52404 34.4896 6.85874 34.484 6.41953 34.8764C3.30565 37.6569 1.20501 40.9206 0.175434 44.5778C-0.276291 46.1833 0.15652 47.8497 1.33328 49.0353C2.22709 49.9362 3.39869 50.4173 4.61958 50.4173C5.0357 50.4173 5.45813 50.3613 5.87645 50.247C10.147 49.081 14.0772 48.4108 17.8916 48.1983C21.1954 48.014 24.4465 48.1323 27.5541 48.5495C29.9559 48.8718 32.4237 49.3888 35.0996 50.1299C36.823 50.6076 38.459 50.1562 39.7059 48.86C40.9268 47.5901 41.2933 46.0132 40.7651 44.2994L40.7646 44.2989ZM38.0572 47.274C37.3825 47.9754 36.6367 48.1823 35.7092 47.9257C32.9321 47.1565 30.3638 46.6187 27.8578 46.2827C24.6079 45.8465 21.2117 45.723 17.7643 45.9151C13.7874 46.1365 9.70183 46.8319 5.27439 48.041C4.43435 48.2706 3.5673 48.0403 2.9568 47.425C2.35932 46.8227 2.14793 46.0108 2.37712 45.1975C3.21567 42.2171 4.7982 39.6162 7.2018 37.2734C11.0641 40.5378 15.5276 42.193 20.4845 42.196H20.4978C25.4557 42.196 29.9251 40.5386 33.7967 37.2667C34.024 37.4904 34.254 37.7359 34.5032 38.0059C36.4236 40.0816 37.7951 42.4256 38.5799 44.9728C38.8603 45.8811 38.6941 46.6125 38.0581 47.274L38.0572 47.274ZM20.4954 30.7538C13.8088 30.7523 8.54664 25.4128 8.54379 18.6256C8.5412 12.2624 13.9961 6.83353 20.3776 6.84872C27.1094 6.86467 32.4526 12.1652 32.4488 18.8231C32.4447 25.4243 27.1038 30.7547 20.4954 30.7538V30.7538ZM29.4401 18.8383C29.5559 13.9512 25.4358 9.8445 20.5347 9.83671C15.5301 9.82892 11.6488 13.9279 11.5328 18.5667C11.4086 23.5202 15.344 27.7103 20.3381 27.7926C25.5542 27.8783 29.554 23.5758 29.4401 18.8383V18.8383ZM20.4917 25.1342C17.2131 25.2436 14.1541 22.4349 14.1567 18.8924C14.1593 15.2627 16.9642 12.4191 20.5858 12.4662C24.0109 12.5111 26.8269 15.2466 26.8362 18.8471C26.8451 22.4293 23.782 25.2436 20.4917 25.1342V25.1342ZM18.5119 13.9982C17.3006 13.9908 15.6202 15.656 15.6295 16.8543C15.6328 17.3209 15.961 17.661 16.3983 17.6513C17.5973 17.6246 19.2281 16.0169 19.2696 14.8205C19.2881 14.2742 19.0371 14.0016 18.5119 13.9982L18.5119 13.9982ZM20.4964 0.568359C10.4428 0.568359 2.26333 8.74761 2.26333 18.8014C2.26333 28.8551 10.4426 37.0345 20.4964 37.0345C30.5502 37.0345 38.7295 28.8553 38.7295 18.8014C38.7291 8.7478 30.5502 0.568359 20.4964 0.568359V0.568359ZM20.4964 33.3886C12.4528 33.3886 5.90919 26.8449 5.90919 18.8014C5.90919 11.3105 11.585 5.12093 18.8624 4.30631C18.8561 4.36009 18.8528 4.41423 18.8528 4.46912C18.8468 5.37368 19.6112 6.16064 20.4927 6.15846C21.3636 6.15586 22.1283 5.39706 22.142 4.52143C22.1431 4.44874 22.1372 4.3768 22.1279 4.30596C29.4067 5.11929 35.0849 11.3092 35.0849 18.802C35.0842 26.8456 28.5404 33.3892 20.4968 33.3892L20.4964 33.3886Z" fill="black"></path>
                        </svg>