<svg width="50" height="50" viewBox="0 0 50 50" fill="none" xmlns="http://www.w3.org/2000/svg">
<path d="M49.22 21.8648C48.82 21.6099 45.665 19.7247 44.415 19.15L42.8651 15.4C43.3251 14.1601 44.2099 10.6849 44.3652 10.0798H44.3649C44.4911 9.52035 44.3213 8.93514 43.9149 8.52987L41.47 6.09995C41.0658 5.69189 40.4795 5.52168 39.9201 5.65003C39.4601 5.75501 35.92 6.64994 34.5999 7.15012L30.8499 5.60021C30.3048 4.40012 28.4699 1.32529 28.1351 0.795199V0.79485C27.8337 0.301688 27.298 0.00069643 26.7201 0H23.2798C22.7057 0.000348769 22.1718 0.294715 21.8648 0.779859C21.6098 1.1799 19.7247 4.33487 19.15 5.58487L15.4 7.13478C14.1601 6.67476 10.6849 5.78996 10.0798 5.63469V5.63504C9.52035 5.50878 8.93513 5.67864 8.52987 6.08496L6.09995 8.52988C5.69189 8.9341 5.52168 9.52042 5.65003 10.0798C5.75501 10.5398 6.64994 14.0799 7.15012 15.4L5.60021 19.15C4.40012 19.6951 1.32529 21.53 0.795198 21.8648H0.79485C0.301688 22.1662 0.00069643 22.7019 0 23.2798V26.7149C0.000348751 27.2893 0.294715 27.8233 0.779858 28.1299C1.1799 28.3849 4.33486 30.27 5.58487 30.8448L7.13478 34.5948C6.67475 35.8347 5.78996 39.3099 5.63469 39.915H5.63504C5.50878 40.4747 5.67863 41.06 6.08496 41.4649L8.51487 43.8948V43.8951C8.9191 44.3032 9.50541 44.4731 10.0648 44.3451C10.5248 44.2401 14.0649 43.3451 15.385 42.845L19.135 44.3949C19.6801 45.595 21.515 48.6698 21.8498 49.1999C22.1525 49.6997 22.6956 50.0035 23.2798 50H26.7149C27.2893 49.9996 27.8233 49.7053 28.1299 49.2201C28.3849 48.8201 30.27 45.6651 30.8447 44.4151L34.5947 42.8652C35.8347 43.3252 39.3098 44.21 39.9149 44.3653V44.3649C40.4747 44.4912 41.0599 44.3213 41.4649 43.915L43.8948 41.4851H43.8951C44.3032 41.0809 44.473 40.4945 44.345 39.9352C44.2401 39.4751 43.3451 35.9351 42.8449 34.615L44.3949 30.865C45.5949 30.3198 48.6698 28.485 49.1999 28.1501C49.6997 27.8474 50.0034 27.3044 49.9999 26.7201V23.2799C50.0045 22.7047 49.7087 22.1683 49.2201 21.8649L49.22 21.8648ZM24.9995 35.8845C22.1099 35.882 19.3399 34.7314 17.2985 32.6866C15.2572 30.6414 14.1118 27.8694 14.1146 24.9798C14.1171 22.0903 15.2676 19.3199 17.3125 17.2785C19.3577 15.2372 22.1297 14.0921 25.0193 14.0946C27.9088 14.0974 30.6792 15.2477 32.7205 17.2928C34.7619 19.338 35.907 22.1101 35.9045 24.9996C35.8978 27.8879 34.7462 30.6557 32.7021 32.6964C30.6576 34.7367 27.8876 35.8834 24.9994 35.8845H24.9995Z" fill="black"></path>
</svg>