<svg width="50" height="32" viewBox="0 0 50 32" fill="none" xmlns="http://www.w3.org/2000/svg">
                            <path d="M18.6201 15.2828H21.8752C21.8752 14.069 22.8681 13.0207 24.1373 13.0207V9.76562C21.1032 9.76562 18.6201 12.2487 18.6201 15.2828Z" fill="black"></path>
                            <path d="M24.855 0C12.9378 0 3.28272 10.9792 0.579292 14.3447C-0.193097 15.2826 -0.193097 16.662 0.579292 17.6553C3.28282 21.0208 12.9378 32 24.855 32C36.7722 32 46.4273 21.0208 49.1307 17.6553C49.9031 16.7174 49.9031 15.338 49.1307 14.3447C46.4275 10.9792 36.7722 0 24.855 0V0ZM24.855 25.8205C19.4482 25.8205 15.0344 21.4067 15.0344 15.9999C15.0344 10.5931 19.4482 6.17927 24.855 6.17927C30.2618 6.17927 34.6756 10.5931 34.6756 15.9999C34.6756 21.4067 30.2618 25.8205 24.855 25.8205Z" fill="black"></path>
                        </svg>