<svg width="82" height="29" viewBox="0 0 82 29" fill="none" xmlns="http://www.w3.org/2000/svg">
<path d="M1.1084 21.2565H3.65094C3.64647 21.3902 3.6713 21.5234 3.72373 21.6468C3.77617 21.7703 3.85499 21.8811 3.95482 21.9719C4.05465 22.0626 4.17316 22.1311 4.30227 22.1727C4.43138 22.2143 4.56806 22.228 4.70302 22.2128C5.2228 22.2128 5.71127 21.9475 5.71127 21.4662C5.71127 20.985 5.00988 20.7258 4.16445 20.5222C2.8744 20.2075 1.25243 19.8126 1.25243 17.8073C1.25243 16.0735 2.50492 15.0801 4.62787 15.0801C6.75083 15.0801 7.99705 16.166 7.99705 17.9554H5.52966C5.53064 17.839 5.5063 17.7238 5.45827 17.6174C5.41023 17.5111 5.33963 17.4161 5.25121 17.339C5.16279 17.2618 5.0586 17.2042 4.94568 17.17C4.83275 17.1359 4.71371 17.1259 4.59656 17.1409C4.15819 17.1409 3.73235 17.326 3.73235 17.758C3.73235 18.1899 4.38364 18.4058 5.25411 18.6094C6.56922 18.9488 8.29138 19.3807 8.29138 21.3922C8.29138 23.4037 6.7884 24.3169 4.70928 24.3169C2.50492 24.3169 1.1084 23.1754 1.1084 21.2565Z" fill="#4E2EE5"/>
<path d="M13.9776 22.0525V24.1011H12.3431C12.0126 24.1285 11.68 24.0843 11.3687 23.9716C11.0574 23.859 10.7749 23.6805 10.541 23.4489C10.307 23.2172 10.1274 22.938 10.0146 22.6307C9.90188 22.3234 9.85873 21.9955 9.88822 21.67V19.1279H8.63574V18.5849L11.7294 15.3394H12.2178V17.2768H13.9525V19.1279H12.2617V21.2936C12.2519 21.3995 12.266 21.5061 12.303 21.606C12.3399 21.7058 12.3988 21.7964 12.4753 21.8713C12.5519 21.9461 12.6443 22.0034 12.7459 22.039C12.8476 22.0746 12.9559 22.0877 13.0633 22.0772L13.9776 22.0525Z" fill="#4E2EE5"/>
<path d="M19.5761 17.2767V19.4178H18.6555C17.8163 19.4178 17.4594 19.7818 17.4594 20.6518V24.1071H15.0859V17.2767H16.6766L17.0461 18.0295C17.2775 17.7659 17.5672 17.5582 17.8929 17.4223C18.2186 17.2865 18.5717 17.2261 18.9248 17.2459L19.5761 17.2767Z" fill="#4E2EE5"/>
<path d="M27.4735 20.6392C27.4721 20.8458 27.4554 21.052 27.4234 21.2562H22.3008C22.3357 21.5944 22.5017 21.9064 22.7641 22.127C23.0266 22.3477 23.3653 22.4601 23.7098 22.4409C23.9554 22.4571 24.2009 22.4084 24.4211 22.3C24.6413 22.1915 24.8281 22.0272 24.9623 21.8239H27.3295C27.0919 22.5765 26.6091 23.231 25.9559 23.6861C25.3027 24.1412 24.5155 24.3715 23.7161 24.3413C22.7411 24.3413 21.8061 23.9597 21.1167 23.2805C20.4273 22.6013 20.04 21.68 20.04 20.7194C20.04 19.7588 20.4273 18.8376 21.1167 18.1583C21.8061 17.4791 22.7411 17.0975 23.7161 17.0975C24.2037 17.0739 24.691 17.1488 25.1482 17.3175C25.6053 17.4863 26.0227 17.7453 26.3746 18.0787C26.7264 18.4121 27.0054 18.8129 27.1944 19.2564C27.3834 19.6999 27.4784 20.1767 27.4735 20.6577V20.6392ZM22.3446 19.9605H25.1314C25.0569 19.6491 24.8737 19.3735 24.6139 19.1817C24.354 18.99 24.034 18.8943 23.7098 18.9115C23.3925 18.8966 23.0803 18.9941 22.8298 19.1866C22.5793 19.3791 22.4072 19.6536 22.3446 19.9605V19.9605Z" fill="#4E2EE5"/>
<path d="M36.1967 17.2767V24.0639H34.3556L34.1552 23.5826C33.5638 24.0487 32.8271 24.2994 32.0698 24.2922C31.5852 24.3063 31.1029 24.2216 30.6531 24.0435C30.2033 23.8654 29.7957 23.5976 29.4559 23.2569C29.116 22.9163 28.8513 22.5102 28.6782 22.064C28.5051 21.6178 28.4275 21.1412 28.4501 20.6641C28.4282 20.1883 28.5065 19.7132 28.6802 19.2687C28.8539 18.8242 29.1191 18.42 29.4591 18.0815C29.7992 17.7429 30.2067 17.4775 30.656 17.3018C31.1053 17.1261 31.5867 17.044 32.0698 17.0607C32.8382 17.052 33.5852 17.3097 34.1802 17.7888L34.4432 17.2767H36.1967ZM33.936 20.6826C33.9311 20.3823 33.8362 20.0901 33.6632 19.8427C33.4903 19.5954 33.247 19.4039 32.964 19.2923C32.6809 19.1807 32.3707 19.1541 32.0723 19.2156C31.774 19.2772 31.5007 19.4242 31.2869 19.6383C31.073 19.8524 30.9282 20.124 30.8705 20.4189C30.8128 20.7139 30.8449 21.019 30.9627 21.2961C31.0804 21.5731 31.2787 21.8097 31.5325 21.9761C31.7863 22.1425 32.0843 22.2313 32.3892 22.2313C32.5938 22.2347 32.797 22.1974 32.9866 22.1216C33.1762 22.0458 33.3484 21.9331 33.4928 21.7903C33.6372 21.6474 33.7509 21.4773 33.827 21.2902C33.9032 21.1031 33.9402 20.9027 33.936 20.7011V20.6826Z" fill="#4E2EE5"/>
<path d="M47.9829 19.8371V24.1007H45.6094V20.1271C45.6094 19.4175 45.3402 19.072 44.8392 19.072C44.2129 19.072 43.8497 19.5162 43.8497 20.3739V24.076H41.5326V20.1271C41.5326 19.436 41.2696 19.072 40.7749 19.072C40.1486 19.072 39.7729 19.5286 39.7729 20.3739V24.076H37.3994V17.2764H39.0715L39.4097 18.0045C39.6578 17.7153 39.9665 17.4822 40.3145 17.3214C40.6625 17.1606 41.0417 17.0758 41.4262 17.0728C41.815 17.0644 42.1998 17.152 42.5455 17.3277C42.8911 17.5033 43.1866 17.7615 43.4051 18.0786C43.6575 17.7639 43.9792 17.5098 44.3459 17.3356C44.7126 17.1613 45.1147 17.0715 45.5218 17.0728C46.9997 17.0975 47.9829 18.2328 47.9829 19.8371Z" fill="#4E2EE5"/>
<path d="M40.0798 4.79426L37.3307 13.6053H35.1639L33.448 9.35404L31.7634 13.6053H29.5966L26.791 4.79426H29.4338L30.8929 9.87234L33.0221 4.83745H33.8738L36.0469 9.87234L37.4684 4.78809L40.0798 4.79426Z" fill="#4E2EE5"/>
<path d="M48.1516 7.9781C48.1596 8.40578 48.0789 8.83056 47.9143 9.2264C47.7498 9.62224 47.5049 9.98079 47.1947 10.2801C46.8845 10.5793 46.5156 10.813 46.1105 10.9668C45.7053 11.1205 45.2726 11.1912 44.8388 11.1743H43.4986V13.6053H41.0312V4.79427H44.8388C45.2722 4.77475 45.7051 4.84313 46.1106 4.99517C46.5161 5.14722 46.8856 5.37969 47.1961 5.67818C47.5067 5.97667 47.7518 6.33482 47.9161 6.73044C48.0805 7.12606 48.1606 7.55072 48.1516 7.9781ZM45.6466 7.9781C45.6547 7.8361 45.6324 7.69401 45.5813 7.561C45.5301 7.42799 45.4513 7.30702 45.3498 7.20587C45.2483 7.10472 45.1265 7.02564 44.9921 6.97373C44.8577 6.92182 44.7137 6.89823 44.5695 6.90449H43.4986V9.04555H44.5445C44.6876 9.05167 44.8304 9.02841 44.9639 8.97724C45.0974 8.92607 45.2186 8.84811 45.3199 8.74832C45.4212 8.64852 45.5003 8.52907 45.5523 8.39754C45.6042 8.26601 45.6278 8.12527 45.6216 7.98427L45.6466 7.9781Z" fill="#4E2EE5"/>
<path d="M78.988 11.0139L61.3092 0.956458C60.6883 0.603276 59.984 0.417385 59.2671 0.417481C58.5502 0.417576 57.8459 0.603653 57.2252 0.957C56.6044 1.31035 56.089 1.81851 55.7308 2.43038C55.3726 3.04225 55.1842 3.73626 55.1846 4.44263V24.5575C55.1842 25.2639 55.3726 25.9579 55.7308 26.5698C56.089 27.1816 56.6044 27.6898 57.2252 28.0431C57.8459 28.3965 58.5502 28.5826 59.2671 28.5827C59.984 28.5828 60.6883 28.3969 61.3092 28.0437L78.988 17.9862C79.6097 17.6334 80.1262 17.1255 80.4852 16.5134C80.8443 15.9014 81.0334 15.207 81.0334 14.5001C81.0334 13.7932 80.8443 13.0987 80.4852 12.4867C80.1262 11.8747 79.6097 11.3667 78.988 11.0139V11.0139Z" fill="#4E2EE5"/>
<path d="M51.1954 16.5794L55.1846 19.6336L72.2121 15.7957C72.5171 15.7411 72.7919 15.58 72.9862 15.3421C73.1806 15.1042 73.2815 14.8052 73.2704 14.5H50.1621C50.1604 14.9016 50.2528 15.2981 50.432 15.6587C50.6112 16.0194 50.8725 16.3344 51.1954 16.5794V16.5794Z" fill="#597DFA"/>
<path d="M51.1954 12.4205L55.1846 9.36621L72.2121 13.2041C72.5171 13.2587 72.7919 13.4198 72.9862 13.6577C73.1806 13.8957 73.2815 14.1946 73.2704 14.4998H50.1621C50.1604 14.0983 50.2528 13.7017 50.432 13.3411C50.6112 12.9804 50.8725 12.6654 51.1954 12.4205V12.4205Z" fill="#7193F9"/>
</svg>
