<svg xmlns="http://www.w3.org/2000/svg" width="135" height="48" viewBox="0 0 135 48" fill="none"><g clip-path="url(#clip0_36:48)"><path d="M0 35.5378H4.26667C4.26117 35.7454 4.29683 35.952 4.37158 36.1457C4.44634 36.3395 4.55871 36.5165 4.70222 36.6666C4.84237 36.818 5.0112 36.9399 5.1989 37.0253C5.3866 37.1108 5.58942 37.1581 5.79556 37.1644H6.03556C6.92444 37.1644 7.72444 36.7111 7.72444 35.8933C7.72444 35.0755 6.54222 34.6311 5.12889 34.2844C2.96 33.7511 0.24 33.0755 0.24 29.6622C0.24 26.7022 2.33778 25.0133 5.90222 25.0133C9.46667 25.0133 11.5644 26.8622 11.5644 29.9111H7.42222C7.42199 29.728 7.38574 29.5468 7.31555 29.3778C7.24885 29.2087 7.14913 29.0546 7.02222 28.9244C6.89007 28.7978 6.7366 28.6955 6.56889 28.6222C6.40293 28.552 6.22462 28.5158 6.04444 28.5155H5.84889C5.12 28.5155 4.4 28.8266 4.4 29.5644C4.4 30.3022 5.46667 30.6044 6.96 31.0133C9.16444 31.5911 12.0533 32.3289 12.0533 35.76C12.0533 39.1911 9.52889 40.7466 6.04444 40.7466C2.33778 40.7555 0 38.8089 0 35.5378Z" fill="#4E2EE5"></path><path d="M21.6 36.8978V40.3822H18.8622C18.3628 40.4247 17.8599 40.368 17.3824 40.2154C16.9049 40.0629 16.4623 39.8175 16.08 39.4933C15.3096 38.8376 14.8275 37.9055 14.7378 36.8978C14.72 36.6759 14.72 36.453 14.7378 36.2311V31.9111H12.6311V31.0222L17.8311 25.4933H18.6489V28.7911H21.5644V31.9467H18.72V35.6356C18.6929 35.9607 18.7954 36.2833 19.0052 36.5331C19.215 36.7828 19.5151 36.9395 19.84 36.9689H20.0711L21.6 36.8978Z" fill="#4E2EE5"></path><path d="M31.0045 28.7555V32.3822H29.4667C28.0622 32.3822 27.4578 33.0044 27.4578 34.4889V40.3822H23.4667V28.7555H26.1333L26.7556 30.0355C27.147 29.5903 27.6329 29.238 28.1778 29.0044C28.7383 28.765 29.3474 28.6614 29.9556 28.7022L31.0045 28.7555Z" fill="#4E2EE5"></path><path d="M44.2666 34.4889C44.2591 34.84 44.2294 35.1903 44.1777 35.5378H35.5733C35.638 36.1133 35.9173 36.6434 36.3555 37.0222C36.7981 37.397 37.3676 37.5879 37.9466 37.5555C38.358 37.5828 38.7691 37.5 39.1378 37.3157C39.5065 37.1313 39.8195 36.8521 40.0444 36.5066H44.0177C43.6884 37.6217 43.0557 38.6233 42.1903 39.3997C41.3249 40.1762 40.2608 40.697 39.1167 40.904C37.9726 41.111 36.7935 40.9961 35.7109 40.5722C34.6283 40.1482 33.6848 39.4318 32.9855 38.5029C32.2863 37.574 31.8588 36.4691 31.7509 35.3115C31.6429 34.1538 31.8587 32.9889 32.3741 31.9468C32.8895 30.9046 33.6843 30.0261 34.6698 29.4092C35.6554 28.7924 36.7929 28.4614 37.9555 28.4533C38.7437 28.4091 39.5327 28.524 40.2755 28.7911C41.02 29.0568 41.7047 29.4669 42.2904 29.9977C42.8761 30.5285 43.3513 31.1696 43.6889 31.8844C44.027 32.5983 44.2233 33.3712 44.2666 34.16V34.4889ZM35.6889 33.3333H40.3644C40.2373 32.7968 39.9219 32.3236 39.4755 32C39.0397 31.6772 38.5062 31.514 37.9644 31.5378C37.4298 31.5168 36.9047 31.6835 36.48 32.0089C36.0689 32.3438 35.7889 32.8126 35.6889 33.3333V33.3333Z" fill="#4E2EE5"></path><path d="M58.9066 28.7556V40.3111H55.8222L55.4844 39.4934C54.4933 40.2917 53.2547 40.7192 51.9822 40.7023C50.4164 40.7453 48.8974 40.1662 47.7578 39.0916C46.6182 38.0169 45.951 36.5345 45.9022 34.9689C45.8933 34.8179 45.8933 34.6666 45.9022 34.5156C45.837 32.9596 46.3904 31.4411 47.4413 30.2918C48.4923 29.1426 49.9555 28.4561 51.5111 28.3823H51.9822C53.2765 28.3587 54.5369 28.7967 55.5377 29.6178L55.9822 28.7289L58.9066 28.7556ZM55.1111 34.56C55.1117 34.0475 54.9602 33.5463 54.6755 33.12C54.3771 32.6889 53.9559 32.3575 53.4666 32.1689C52.9917 31.9711 52.468 31.9215 51.9644 32.0267C51.4615 32.1272 51.0001 32.3755 50.6391 32.7397C50.2781 33.1038 50.0339 33.5674 49.9377 34.0711C49.8333 34.5719 49.8829 35.0925 50.0799 35.5645C50.2779 36.038 50.6112 36.4424 51.0382 36.7271C51.4652 37.0117 51.9668 37.1639 52.4799 37.1645C52.8174 37.172 53.153 37.1116 53.4666 36.9867C53.777 36.8646 54.0608 36.6835 54.3022 36.4534C54.5424 36.2163 54.7355 35.9358 54.8711 35.6267C55.0051 35.3212 55.0747 34.9914 55.0755 34.6578V34.56H55.1111Z" fill="#4E2EE5"></path><path d="M78.7022 33.12V40.3822H74.7111V33.6178C74.7111 32.4 74.2578 31.84 73.4222 31.84C72.3733 31.84 71.76 32.5955 71.76 34.0622V40.3822H67.8667V33.6178C67.8667 32.4355 67.4311 31.84 66.5955 31.84C65.5467 31.84 64.9155 32.6222 64.9155 34.0622V40.3822H60.9244V28.8267H63.7333L64.3022 30.0711C64.7066 29.5451 65.2267 29.1192 65.8222 28.8267C66.4071 28.5537 67.0434 28.4082 67.6889 28.4C68.341 28.3824 68.9868 28.5323 69.5644 28.8355C70.1478 29.133 70.6462 29.5733 71.0133 30.1155C71.4364 29.5717 71.9774 29.131 72.5955 28.8267C73.2097 28.5257 73.885 28.3706 74.5689 28.3733C77.0489 28.4533 78.7022 30.3822 78.7022 33.12Z" fill="#4E2EE5"></path><path d="M65.4311 7.49335L60.8089 22.5067H57.1733L54.2933 15.2622L51.4667 22.5067H47.8311L43.12 7.49335H47.5644L50.0089 16.1511L53.5644 7.56446H54.9956L58.64 16.1511L61.0489 7.49335H65.4311Z" fill="#4E2EE5"></path><path d="M78.9867 12.9066C78.9964 13.6117 78.8696 14.312 78.6133 14.9689C78.3577 15.63 77.9741 16.2341 77.4845 16.7466C76.9967 17.2529 76.4137 17.6577 75.7689 17.9378C75.1241 18.2215 74.4288 18.3726 73.7245 18.3822H71.1733V22.5244H67.0311V7.49331H73.4222C74.1206 7.45863 74.8188 7.56442 75.4756 7.80442C76.1306 8.04372 76.734 8.40574 77.2533 8.87109C77.7686 9.3416 78.1856 9.90958 78.48 10.5422C78.7797 11.175 78.9519 11.8606 78.9867 12.56V12.9066ZM74.7733 12.9066C74.7882 12.6807 74.758 12.4541 74.6845 12.24C74.6061 12.0247 74.4885 11.8258 74.3378 11.6533C74.185 11.4834 74.0009 11.3446 73.7956 11.2444C73.5892 11.1477 73.3655 11.0933 73.1378 11.0844H71.1733V14.7289H72.9511C73.1811 14.7374 73.4105 14.7011 73.6267 14.6222C73.8408 14.5471 74.0374 14.4291 74.2045 14.2755C74.3705 14.1179 74.506 13.9311 74.6045 13.7244C74.6982 13.517 74.7525 13.2939 74.7645 13.0666V12.9244L74.7733 12.9066Z" fill="#4E2EE5"></path><path d="M130.8 18.0622L101.076 0.924459C100.034 0.323948 98.8521 0.0081736 97.6495 0.00885119C96.4469 0.00952877 95.2657 0.326635 94.2245 0.928319C93.1832 1.53 92.3187 2.39508 91.7176 3.43666C91.1165 4.47824 90.8 5.65966 90.8 6.86224V41.1467C90.8018 42.3495 91.1198 43.5308 91.722 44.572C92.3241 45.6132 93.1894 46.4779 94.2311 47.0793C95.2728 47.6808 96.4543 47.9978 97.6571 47.9987C98.86 47.9996 100.042 47.6843 101.084 47.0845L130.8 29.9467C131.845 29.3461 132.713 28.4805 133.317 27.4373C133.921 26.394 134.239 25.2099 134.239 24.0045C134.239 22.7991 133.921 21.615 133.317 20.5717C132.713 19.5284 131.845 18.6628 130.8 18.0622V18.0622Z" fill="#4E2EE5"></path><path d="M82.3733 23.4933C82.2961 23.6405 82.245 23.7999 82.2222 23.9645C82.2222 24.3556 82.4533 24.4178 82.4533 24.4178L121.475 24.2667C121.542 24.1738 121.596 24.0721 121.635 23.9645C121.632 23.829 121.611 23.6945 121.573 23.5645L82.3733 23.4933Z" fill="#7193F9"></path><path d="M83.9822 27.6L90.7911 32.9333L119.84 26.2933C120.357 26.1954 120.822 25.914 121.149 25.5008C121.475 25.0877 121.642 24.5705 121.618 24.0444H82.2222C82.2222 24.7344 82.3828 25.4149 82.6914 26.032C82.9999 26.6492 83.448 27.186 83.9999 27.6H83.9822Z" fill="#597DFA"></path><path d="M83.9822 20.4L90.8 15.1111L119.849 21.76C120.365 21.8577 120.828 22.1378 121.155 22.5491C121.481 22.9604 121.649 23.4754 121.627 24H82.2222C82.2166 23.3044 82.3717 22.6169 82.6755 21.9911C82.9859 21.3692 83.4326 20.8254 83.9822 20.4Z" fill="#7193F9"></path></g><defs><clipPath id="clip0_36:48"><rect width="134.196" height="48" fill="white"></rect></clipPath></defs></svg>